<svg xmlns="http://www.w3.org/2000/svg" viewBox="0 0 1000 1200"><path d="M134.89,648.6a64.43,64.43,0,0,1,0-114.12Q150.82,526,170.8,526t35.91,8.46a64.43,64.43,0,0,1,0,114.12q-15.93,8.46-35.91,8.46T134.89,648.6ZM188.08,623a32.37,32.37,0,0,0,12.24-12.69,41.56,41.56,0,0,0,0-37.62A32.37,32.37,0,0,0,188.08,560a35.43,35.43,0,0,0-34.56,0,32.37,32.37,0,0,0-12.24,12.69,41.56,41.56,0,0,0,0,37.62A32.37,32.37,0,0,0,153.52,623a35.43,35.43,0,0,0,34.56,0Z"/><path d="M360.7,627v27.54H259.54v-126h98.82v27.54H294.82v21.24h56V604h-56v23Z"/><path d="M395,641.76q-15.58-15.3-15.57-43.38V528.54h35.64V597.3q0,30.24,23.94,30.24,23.76,0,23.76-30.24V528.54h35.1v69.84q0,28.08-15.57,43.38t-43.65,15.3Q410.56,657.06,395,641.76Z"/><path d="M649.78,528.54l-54,126H560.67l-53.81-126h38.52l34.2,82.08,34.92-82.08Z"/><path d="M712.23,621.06H692.79v33.48H657.15v-126h57.6q17.1,0,29.7,5.67a44,44,0,0,1,19.44,16.2q6.84,10.53,6.84,24.75,0,13.68-6.39,23.85a43.22,43.22,0,0,1-18.27,15.93l27.18,39.6H735.09Zm16.92-59.58q-5.58-4.86-16.56-4.86h-19.8v36.9h19.8q11,0,16.56-4.77t5.58-13.59Q734.73,566.34,729.15,561.48Z"/><path d="M891.51,627v27.54H790.35v-126h98.82v27.54H825.63v21.24h56V604h-56v23Z"/></svg>