<svg xmlns="http://www.w3.org/2000/svg" viewBox="0 0 1000 1200"><path d="M215.94,540.56a44,44,0,0,1,19.44,16.2q6.84,10.53,6.84,24.75t-6.84,24.66a44.26,44.26,0,0,1-19.44,16.11q-12.6,5.67-29.7,5.67h-22v32.94H128.64v-126h57.6Q203.34,534.89,215.94,540.56Zm-15.3,54.54q5.58-4.77,5.58-13.59t-5.58-13.68Q195.06,563,184.08,563h-19.8v36.9h19.8Q195.06,599.87,200.64,595.1Z"/><path d="M288.93,655a64.43,64.43,0,0,1,0-114.12q15.93-8.46,35.91-8.46t35.91,8.46a64.43,64.43,0,0,1,0,114.12q-15.93,8.46-35.91,8.46T288.93,655Zm53.19-25.56a32.37,32.37,0,0,0,12.24-12.69,41.56,41.56,0,0,0,0-37.62,32.37,32.37,0,0,0-12.24-12.69,35.43,35.43,0,0,0-34.56,0,32.37,32.37,0,0,0-12.24,12.69,41.56,41.56,0,0,0,0,37.62,32.37,32.37,0,0,0,12.24,12.69,35.43,35.43,0,0,0,34.56,0Z"/><path d="M428.16,659.63q-14.4-3.78-23.4-10.08l11.7-26.28a75.71,75.71,0,0,0,19.62,9,74.69,74.69,0,0,0,22,3.42q20.52,0,20.52-10.26,0-5.4-5.85-8t-18.81-5.49a179.54,179.54,0,0,1-23.76-6.57,40,40,0,0,1-16.38-11.25q-6.84-7.74-6.84-20.88a36.15,36.15,0,0,1,6.3-20.79q6.3-9.27,18.81-14.67t30.69-5.4a108.26,108.26,0,0,1,24.48,2.79,75,75,0,0,1,21.24,8.19l-11,26.46q-18-9.72-34.92-9.72-10.62,0-15.48,3.15t-4.86,8.19q0,5,5.76,7.56t18.54,5.22a173.68,173.68,0,0,1,23.85,6.57,41.18,41.18,0,0,1,16.38,11.16q6.93,7.65,6.93,20.79a35.44,35.44,0,0,1-6.3,20.52q-6.3,9.18-18.9,14.67t-30.6,5.49A116.49,116.49,0,0,1,428.16,659.63Z"/><path d="M555.06,563.15h-38.7V534.89H629.22v28.26H590.7v97.74H555.06Z"/><path d="M743.7,633.35v27.54H642.54v-126h98.82v27.54H677.82v21.24h56v26.64h-56v23Z"/><path d="M818.58,627.41H799.14v33.48H763.5v-126h57.6q17.1,0,29.7,5.67a44,44,0,0,1,19.44,16.2q6.84,10.53,6.84,24.75,0,13.68-6.39,23.85a43.22,43.22,0,0,1-18.27,15.93l27.18,39.6H841.44Zm16.92-59.58Q829.92,563,818.94,563h-19.8v36.9h19.8q11,0,16.56-4.77t5.58-13.59Q841.08,572.69,835.5,567.83Z"/></svg>