<svg xmlns="http://www.w3.org/2000/svg" viewBox="0 0 440.66 440.66"><defs><style>.a{fill-rule:evenodd;}</style></defs><path fill="#ffffff" class="a" d="M220.33,0c121.6,0,220.33,98.73,220.33,220.33S341.93,440.66,220.33,440.66,0,341.93,0,220.33,98.73,0,220.33,0Zm0,28.29c106,0,192,86.05,192,192s-86.05,192-192,192-192-86.05-192-192S114.34,28.29,220.33,28.29Z"/><path fill="#ffffff" class="a" d="M206.18,173.43v93.8a14.15,14.15,0,0,0,28.29,0v-93.8a14.15,14.15,0,1,0-28.29,0Z"/><path fill="#ffffff" class="a" d="M173.43,234.47h93.8a14.15,14.15,0,0,0,0-28.29h-93.8a14.15,14.15,0,1,0,0,28.29Z"/><path fill="#ffffff" d="M227.53,69.29h-2.27a1.77,1.77,0,0,1-1.68-1.22l-6.51-15.62c-.25-.59-.5-.55-.5,0V68.07a1.17,1.17,0,0,1-1.22,1.22h-2.27a1.12,1.12,0,0,1-1.17-1.18V40.52a1.11,1.11,0,0,1,1.17-1.22h2.27A1.86,1.86,0,0,1,217,40.47l6.55,15.67c.26.59.51.55.51,0V40.52a1.18,1.18,0,0,1,1.17-1.22h2.27a1.11,1.11,0,0,1,1.22,1.17V68.11A1.28,1.28,0,0,1,227.53,69.29Z"/><path fill="#ffffff" d="M53.15,233.16a7.74,7.74,0,0,1-6.51,2.9c-2.81,0-5.21-1.05-6.47-2.9s-1.72-3.7-1.72-7.1V215.18c0-3.4.5-5.5,1.72-7.14,1.39-1.89,3.57-2.86,6.47-2.86s5.21,1,6.51,2.86,1.73,3.74,1.73,7.14v10.88C54.88,229.46,54.37,231.52,53.15,233.16Zm-3-17.9c0-4.28-.92-5.75-3.53-5.75s-3.53,1.47-3.53,5.75V226c0,4.24.84,5.71,3.53,5.71s3.53-1.47,3.53-5.71Z"/><path fill="#ffffff" d="M405,234.56a1.18,1.18,0,0,1-1.21,1.18H392.59a1.22,1.22,0,0,1-1.22-1.18V207a1.43,1.43,0,0,1,1.22-1.22h11.18c.79,0,1.17.42,1.17,1.22v1.89a1.06,1.06,0,0,1-1.13,1.18h-6.6c-.84,0-1.22.58-1.22,1.38v5.3a1.16,1.16,0,0,0,1.22,1.17h5.59A1.12,1.12,0,0,1,404,219.1V221a1.21,1.21,0,0,1-1.18,1.18h-5.63a1.18,1.18,0,0,0-1.13,1.26v6.8a1.08,1.08,0,0,0,1.13,1.22h6.6a1.31,1.31,0,0,1,1.21,1.26Z"/><path fill="#ffffff" d="M220.68,402.24c-7.6,0-8.94-6.55-8.94-7.6a1.29,1.29,0,0,1,1.09-1.18l1.68-.5a3.87,3.87,0,0,1,.84-.17c.46,0,.76.25.92,1,.72,2.74,2.27,4.16,4.41,4.16a3.24,3.24,0,0,0,3.41-3.4c0-1.89-.93-3.11-4.41-5.88l-3-2.39c-2.43-1.94-4.2-4.25-4.2-7.52,0-4.37,3.28-7.36,7.86-7.36a8.33,8.33,0,0,1,8.15,6.73,1.16,1.16,0,0,1-.93,1.09l-2.1.63a2.69,2.69,0,0,1-.5.08c-.51,0-.8-.29-1-.92q-1.14-3.29-3.66-3.28a2.93,2.93,0,0,0-3,3c0,1.63.88,3,3.11,4.74l2.06,1.64c3.36,2.65,6.47,4.75,6.47,9.54C228.92,399.17,225.6,402.24,220.68,402.24Z"/></svg>