<svg xmlns="http://www.w3.org/2000/svg" xmlns:xlink="http://www.w3.org/1999/xlink" viewBox="0 0 89.61 101"><defs><style>.cls-1{fill:none;}.cls-2{fill:#e1c47f;}.cls-3{fill:#1f1c17;}.cls-4{clip-path:url(#clip-path);}.cls-5{fill:#201d16;}</style><clipPath id="clip-path" transform="translate(-136.29 -25.08)"><rect class="cls-1" width="612" height="792"/></clipPath></defs><title>Photo_Fixe</title><g id="Calque_2" data-name="Calque 2"><g id="Calque_1-2" data-name="Calque 1"><polygon class="cls-2" points="1.82 19.78 66.81 1.85 87.78 80.71 22.5 99.14 1.82 19.78"/><path class="cls-3" d="M202,28.78l20.2,76-62.38,17.61L139.94,45.92Zm2.12-3.7L136.29,43.81l21.43,82.27,68.18-19.25Z" transform="translate(-136.29 -25.08)"/><g class="cls-4"><path class="cls-5" d="M143.15,47.92l6.32,21.34s4.15.11,4.93-.28,1.44-2.43,1.83-2.88a2.11,2.11,0,0,1,1.16-.66c.39-.11.67-.28.5-.67s-.5-.5-1.11-.66-.77-.06-1.16-.39-.5-.22-.56-1,0-1.22.28-1.39a4,4,0,0,1,1.33-.28c.22,0,.44-.27,1,.06a2.14,2.14,0,0,0,1.11.44c.44.06.61.11,1-.22s.67-.33.89-1a3.47,3.47,0,0,1,.61-1.38c.44-.61.39-.72.89-.78a2.27,2.27,0,0,1,1.22,0c.66.17.77.46,1.22.48s.27.41.38.58.12.27.28.55.17.39,0,.83a2.66,2.66,0,0,1-.8,1.16,3.07,3.07,0,0,1-.78.61c-.5.28-.33.34-.83.34s-.83.11-1.17.11a5.92,5.92,0,0,0-.88.11v.61c.94.5,1.38.38,1.55.55a.81.81,0,0,1,.33.72c0,.44.28.61,0,1.17a3.29,3.29,0,0,1-.66,1.1c-.45.5-.45.67-1,.95s-.44,0-.66.33-.34.13-.61,1c-.23.68-.78,1.26.55,1.14s1.22.17,2-.27.78-.11,1.33-1.22.89-1.72.89-1.72a4.21,4.21,0,0,0,.79-1.11c.15-.44.65-.61,1-1.22s.39-.94.55-1.27a1.39,1.39,0,0,1,.78-.78c.44-.16.28-.39.83-.22,0,0,1.07-.21,1.38.33a3.25,3.25,0,0,1,.37,1.15s-.14,1.1-.25,1.74a4.2,4.2,0,0,1-.45,1.56c-.27.48-.92,1.48-.92,1.48s-1.22.56-1.49,1.35-.29.93-.54,1.58a7,7,0,0,0-.59,1.91,6.61,6.61,0,0,0,.57,2.85,14.06,14.06,0,0,0,2.09,1.62,6.2,6.2,0,0,0,2.25,0,3.7,3.7,0,0,0,2.24-.88c.52-.6.77-1,1.17-1.43a15.38,15.38,0,0,1,.95-1.27,2.52,2.52,0,0,1,1.73-.77,3.63,3.63,0,0,1,2.08,1.06c.35.29.45.61,1,.56a1.75,1.75,0,0,0,1.16-.37,4.73,4.73,0,0,0,.77-1.29,2.4,2.4,0,0,1,.75-1.18,6.27,6.27,0,0,1,1.68-.5,9.43,9.43,0,0,1,1.52.68,2.84,2.84,0,0,0,1.49.84c.69,0,1,.18,1.5-.07a8.54,8.54,0,0,0,2.14-1.06c.46-.45.83-.74,1.17-1.14a5.42,5.42,0,0,0,1-1.35,2.74,2.74,0,0,0,.42-1.81,4.77,4.77,0,0,0-.73-1.75c-.23-.16-2.3-1.55-2.57-1.68s-1.23-.73-1.23-.73l-2.06-1.14s-.43-.31-.75-.6-1.2-.94-1.2-.94a11,11,0,0,1-.81-1.39,5.75,5.75,0,0,1,.12-2,3.45,3.45,0,0,1,2.58,0c.5.38,1.43.9,1.87,1.25a13.19,13.19,0,0,0,2,1,15.84,15.84,0,0,0,2,.79,8.53,8.53,0,0,0,1.66.19c.5,0,1.83.08,2-.33a1.21,1.21,0,0,0-.25-1.5,12.57,12.57,0,0,0-2.93-.81,5.94,5.94,0,0,1-1.39-.39s-.94-.81-1-1.39a11.6,11.6,0,0,0-.27-1.4s-2.72,0-2.89-.06-.25.12-.79-.37a2.09,2.09,0,0,1-.62-1.17,5.1,5.1,0,0,1,.1-1.7,1.59,1.59,0,0,1,1.12-.9c.48-.08.65-.31,1.37-.08a2.69,2.69,0,0,1,1.36.89c.33.38.06.5.7.57s.77.18,1.33-.13.92-.54,1.1-1,.17-.66.59-.91a1.32,1.32,0,0,1,1.26-.33c.75.12,1.46.35,1.62.68a2.92,2.92,0,0,1,.34,1.29c0,.5.23.52-.25,1.12s-.9,1-.76,1.62.94,1.07,1.42,1.52a1.88,1.88,0,0,0,1.35.73,9.71,9.71,0,0,0,1.81-.23,6.9,6.9,0,0,0,1.81-.85c.46-.42.54-.75,1.23-.89a1.81,1.81,0,0,0,1-2.44C204.6,51.32,200.82,38,200.82,38s-.25-2.37-.3-2.82a16.61,16.61,0,0,0-.16-1.69,8.26,8.26,0,0,0-.38-1.1l-5.34.79L195,34.3a10.34,10.34,0,0,1,2.24.63,2,2,0,0,1,1.08,1.76,6.08,6.08,0,0,1-.14,1.6s-4.87,2.77-5.43,3-5,2-5.44,2.24a17.67,17.67,0,0,0-3.1,1.79c-1.43,1-1.95,1.12-2.47,2a13,13,0,0,0-1.17,3c-.1.56-.29,5.53-.25,6a23.37,23.37,0,0,0,.4,2.73,12.58,12.58,0,0,0,2.06,3.72c.49.35,1.22.81,1.62,1.12s1.12.83,1.12.83.81.58,1.1.81,1.83.83,2.45,1.19.63.14.88.68a4.21,4.21,0,0,1,.37,1.79,2.15,2.15,0,0,1-.5.81,2.1,2.1,0,0,1-1.29.23c-.52-.17-.77-.44-1.12-.5A9.59,9.59,0,0,0,185,70a7.28,7.28,0,0,0-1.77.89A10.15,10.15,0,0,0,181.76,72l-.9.79s-.18.5-1.22.32-2-.42-2-.42a11,11,0,0,0-1.78-.08,6.27,6.27,0,0,0-1.73.43l-1.08.92-.75,1-.66.69s-1.08,0-1.35,0a3.63,3.63,0,0,1-.84-.38s-.64-.14-.72-1.18a3.81,3.81,0,0,1,.06-1.45l1-1.09A18.4,18.4,0,0,0,172.09,69a6.59,6.59,0,0,0,1-2.85c.08-1.16.73-3.74.31-5.28a42.82,42.82,0,0,0-1.45-4s-1-1.25-1.44-1.85-1-1.33-1-1.33l-1.76-1.73-.9-.7a20.78,20.78,0,0,0-4-.21c-2.49.08-4.53.12-5.11.5a7.83,7.83,0,0,1-2.83,1.08c-.83,0-6.15,0-6.36,0a2.87,2.87,0,0,1-1.25-.92,2.81,2.81,0,0,1-.72-1.7,1.55,1.55,0,0,1,.52-1.37,8.91,8.91,0,0,1,1-.77,4.64,4.64,0,0,0,.25-1.14.91.91,0,0,0-.29-.36Z" transform="translate(-136.29 -25.08)"/><path class="cls-5" d="M167,81.43a15.45,15.45,0,0,1,2.69,2.07s.27.23.19.92a2.37,2.37,0,0,1-1.16,2,13.07,13.07,0,0,0-1.88,1.33,10.21,10.21,0,0,0-2.22,3c-.25.56-.89.86-1.16.69s-.35,0-.08-1.43a9.81,9.81,0,0,1,.8-2.75,16,16,0,0,0,.77-2.13,18.68,18.68,0,0,0,.61-1.83c.25-.94.17-.81.5-1.19s.66-.69.94-.61" transform="translate(-136.29 -25.08)"/><path class="cls-5" d="M196.49,73.32A15.81,15.81,0,0,0,195,76.38s-.14.32.24.91a2.39,2.39,0,0,0,1.92,1.24,14.52,14.52,0,0,1,2.28.35,10.07,10.07,0,0,1,3.3,1.67c.47.38,1.18.37,1.35.1s.29-.2-.57-1.32a9.83,9.83,0,0,0-1.94-2.11A17.85,17.85,0,0,1,200,75.66a15.94,15.94,0,0,1-1.36-1.37c-.65-.73-.51-.64-1-.84s-.9-.32-1.12-.13" transform="translate(-136.29 -25.08)"/><path class="cls-5" d="M158.86,109.36l3.22,8.9s10-3,10.66-3.39a6.58,6.58,0,0,1,2.89-1.24,26.83,26.83,0,0,1,3.32-.11s13.41-3.16,14.13-3.47c.5-.21,4.79-1.67,8-2.63a31,31,0,0,0,3.52-1.39l13.5-3.74a15.64,15.64,0,0,1-1.22-4.68c-.06-2-.14-3-.14-3s-1-.58-1.17-.25-1,3.71-1,3.71l-1.25,1.83a6.05,6.05,0,0,1-1.47,1.3c-.63.31-.16.61-1.63.56s-1.83,0-2.25-.22a1.85,1.85,0,0,1-.69-.58c-.3-.34-.86-1.06-.86-1.06a4.37,4.37,0,0,1,.25-2c.39-.64,1-1.16,1.22-1.55s.5-1.25.5-1.25l-.36-.79h-1.11l-1.44,1.68-1.25,1.34-.88.85-2.17.19s.25,4.08.25,4.52a6.85,6.85,0,0,1-1.71,2.47c-.45.3-1.81,1.1-2.47,1.46a30.92,30.92,0,0,1-2.86,1.47c-.69.25-2.54.83-2.54.83s-3.14.89-3.61.92-9.95.08-10.31,0a6.35,6.35,0,0,1-1-.34l-2-3.21-4.54-.5-1.36-.89-2.05.2v1s2.13,1.53,2.46,1.86.86.25,1,1.47a5.21,5.21,0,0,1-.28,2.66,1.81,1.81,0,0,1-1.19.67l-3.21.11s-3.16-1.47-3.38-1.67-1.86-2.21-1.86-2.21Z" transform="translate(-136.29 -25.08)"/><path class="cls-5" d="M156.62,97.75a41.58,41.58,0,0,1,2.43,3.38c.48.55,1.53,1.22,1.61,1.66a6,6,0,0,1,.06,1.5c-.06.33.22.88-.78.8s-1.36.17-1.63-.16a3.82,3.82,0,0,1-.36-1.57c-.06-.36-.45-2.09-.61-2.56s-.39-1.14-.56-1.56-.41-.74-.47-1-.47-.86.31-.53" transform="translate(-136.29 -25.08)"/><path class="cls-5" d="M212.8,82.06a40,40,0,0,0-.37,4.15c-.12.72-.68,1.83-.53,2.25a5.63,5.63,0,0,0,.72,1.32c.22.26.26.87,1.08.29s1.25-.55,1.32-1a4.23,4.23,0,0,0-.49-1.53c-.14-.33-.69-2-.79-2.51s-.25-1.18-.32-1.62,0-.85-.09-1.07,0-1-.53-.3" transform="translate(-136.29 -25.08)"/><path class="cls-5" d="M198.49,83.45c-.61-.28-2-.22-4.38-.58a17,17,0,0,0-4.68,0,6.11,6.11,0,0,0-2.19.41,2.65,2.65,0,0,0-1.22,1,8.32,8.32,0,0,1-2.47,1.39,33.94,33.94,0,0,1-3.41-.53c-.33-.16-.83,0-1.66.3a4.36,4.36,0,0,0-1.33.82L175,87.55l-2.71,1.66a20.89,20.89,0,0,0-2.88,2.5c-.53.75.05,1.52.22,1.91s.83.42,1,.47,2.41.38,2.41.38l6.07.65a27.92,27.92,0,0,1,3.25.72,5.57,5.57,0,0,1,1.63.94,6.34,6.34,0,0,0,2.91.47,1.63,1.63,0,0,0,1.48-1.36,8.1,8.1,0,0,1,.9-1.63c.56-.75,8.46-7,8.73-7.26a10.85,10.85,0,0,0,1.67-2.25c0-.36-.64-1-1.25-1.3m-5.88,5.74c-.52.66-1.41,1.6-1.63,1.91a8.15,8.15,0,0,1-1.5,1.13c-.41.28-1,.7-1.44,1a8.46,8.46,0,0,0-1,.81l-1,.38a12.63,12.63,0,0,1-2.61,0c-.83-.16-1.77-.3-1.77-.3a5,5,0,0,1-1.25-.11,14.84,14.84,0,0,1-1.69-.42A15.67,15.67,0,0,1,177,93c-.52-.27-1.3-.52-1.44-.94s-.47-1.05.11-1.63,1.22-1,1.5-1.25a7.18,7.18,0,0,1,1.69-.58s1.52-.64,2.38.16A10.21,10.21,0,0,0,182.8,90c.23.12,2.64.48,2.94-.27A13.94,13.94,0,0,1,187,87.61c.44-.7.25-1,1.08-1.38a14.52,14.52,0,0,1,2.3-.73,4.22,4.22,0,0,1,1.77,0c.53.11,1.05.25,1.19.5a2.13,2.13,0,0,1,.28,1.16,4.68,4.68,0,0,1-1,2" transform="translate(-136.29 -25.08)"/></g></g></g></svg>