<svg xmlns="http://www.w3.org/2000/svg" xmlns:xlink="http://www.w3.org/1999/xlink" viewBox="0 0 60.07 74.56"><defs><style>.cls-1{fill:none;}.cls-2{clip-path:url(#clip-path);}.cls-3{fill:#201d16;}</style><clipPath id="clip-path" transform="translate(-319.8 -79.56)"><rect class="cls-1" x="-2.88" y="152.53" width="792" height="612" transform="translate(-147.25 728.33) rotate(-75.93)"/></clipPath></defs><title>visage_seul_1</title><g id="Calque_2" data-name="Calque 2"><g id="Calque_1-2" data-name="Calque 1"><g class="cls-2"><path class="cls-3" d="M319.8,81.3l.94,22.23s4,1.12,4.85.93,2-2,2.48-2.35a2.06,2.06,0,0,1,1.29-.36c.4,0,.71-.11.65-.53s-.37-.6-.92-.91-.74-.24-1-.66-.43-.34-.28-1.16.29-1.18.6-1.27a4,4,0,0,1,1.36,0c.21.06.5-.16.95.3a2.18,2.18,0,0,0,1,.7c.42.16.57.25,1,0s.73-.16,1.11-.76a3.39,3.39,0,0,1,.92-1.19c.58-.49.55-.61,1.05-.54a2.2,2.2,0,0,1,1.18.3c.61.32.65.63,1.07.76s.17.47.24.66,0,.29.13.59.07.42-.17.82a2.8,2.8,0,0,1-1.07.93,2.92,2.92,0,0,1-.9.4c-.55.15-.4.25-.88.12s-.84-.09-1.16-.17a6.19,6.19,0,0,0-.89-.11l-.15.59c.8.72,1.25.72,1.38.92a.81.81,0,0,1,.14.78c-.11.43.12.66-.28,1.13a3.19,3.19,0,0,1-.92.91c-.55.38-.59.54-1.14.68s-.43-.1-.72.16-.37,0-.83.79-1.06,1,.26,1.24,1.14.46,2,.22.78.08,1.59-.86,1.28-1.45,1.28-1.45a4.5,4.5,0,0,0,1-.88c.25-.4.77-.44,1.24-1s.61-.82.85-1.1a1.32,1.32,0,0,1,.94-.56c.47,0,.37-.31.86,0,0,0,1.09,0,1.26.65a3.21,3.21,0,0,1,.08,1.2s-.41,1-.66,1.64a4.33,4.33,0,0,1-.83,1.4c-.37.39-1.24,1.21-1.24,1.21a3.15,3.15,0,0,0-1.78.94c-.45.7-.51.84-.91,1.4a7.1,7.1,0,0,0-1,1.72,6.73,6.73,0,0,0-.15,2.89,13,13,0,0,0,1.65,2.09,6,6,0,0,0,2.17.54,3.73,3.73,0,0,0,2.39-.3c.65-.46,1-.74,1.48-1.11s.92-.84,1.24-1a2.5,2.5,0,0,1,1.86-.33,3.6,3.6,0,0,1,1.75,1.53c.28.37.3.7.88.8a1.76,1.76,0,0,0,1.22-.08,4.59,4.59,0,0,0,1-1.06,2.57,2.57,0,0,1,1-1,6.48,6.48,0,0,1,1.75-.07,9.94,9.94,0,0,1,1.31,1c.33.39.59,1,1.25,1.17s.88.42,1.46.31a9.08,9.08,0,0,0,2.34-.51c.55-.34,1-.53,1.4-.83a5.54,5.54,0,0,0,1.32-1.06,2.73,2.73,0,0,0,.84-1.65,4.73,4.73,0,0,0-.28-1.87c-.18-.22-1.86-2.08-2.09-2.26s-1-1-1-1l-1.72-1.61s-.34-.4-.58-.76-.94-1.2-.94-1.2a12,12,0,0,1-.45-1.55,6,6,0,0,1,.62-2,3.47,3.47,0,0,1,2.51.59c.39.48,1.17,1.22,1.51,1.66a14.07,14.07,0,0,0,1.72,1.42A16.66,16.66,0,0,0,365,106a9.19,9.19,0,0,0,1.56.58c.49.12,1.76.53,2,.17s.55-1.06.12-1.51a12.26,12.26,0,0,0-2.64-1.5,6.12,6.12,0,0,1-1.26-.72s-.71-1-.63-1.59a12.93,12.93,0,0,0,.08-1.42s-2.64-.68-2.79-.76-.27.06-.67-.56a2.11,2.11,0,0,1-.32-1.28,5.31,5.31,0,0,1,.51-1.63,1.56,1.56,0,0,1,1.31-.59c.48,0,.7-.15,1.35.25a2.58,2.58,0,0,1,1.09,1.2c.23.44-.06.5.55.71s.7.37,1.32.2a2.22,2.22,0,0,0,1.3-.65c.28-.36.33-.61.79-.75a1.33,1.33,0,0,1,1.31,0c.69.3,1.32.69,1.41,1.06a2.83,2.83,0,0,1,0,1.33c-.12.48.1.56-.51,1s-1.13.79-1.13,1.39.66,1.26,1,1.82a1.87,1.87,0,0,0,1.13,1,9.57,9.57,0,0,0,1.81.22,7.1,7.1,0,0,0,2-.38c.54-.3.7-.6,1.4-.57a1.8,1.8,0,0,0,1.6-2.11c-.12-1.4-.56-15.2-.56-15.2s.34-2.36.41-2.82.23-1.18.25-1.67a7.84,7.84,0,0,0-.1-1.16l-5.37-.53.1,1.14a10.11,10.11,0,0,1,2,1.15,2,2,0,0,1,.62,2,5.73,5.73,0,0,1-.53,1.51s-5.39,1.5-6,1.63-5.31.76-5.83.85a17.2,17.2,0,0,0-3.43,1c-1.64.64-2.17.61-2.89,1.35a13.09,13.09,0,0,0-1.86,2.62c-.24.52-1.63,5.3-1.7,5.77a21,21,0,0,0-.28,2.74,12.51,12.51,0,0,0,1.09,4.11c.4.46,1,1.08,1.3,1.48s.88,1.08.88,1.08.65.76.88,1,1.57,1.25,2.09,1.75.57.29.68.88a4.1,4.1,0,0,1-.08,1.82,1.37,1.37,0,0,1-2,.57c-.47-.28-.64-.61-1-.75a9.47,9.47,0,0,0-2.38-.41,7.55,7.55,0,0,0-1.93.44,10.16,10.16,0,0,0-1.73.72l-1.06.55s-.3.44-1.26,0-1.8-.88-1.8-.88a11.38,11.38,0,0,0-1.71-.52,6.14,6.14,0,0,0-1.78,0l-1.27.62-1,.75-.81.5s-1.06-.23-1.31-.33a3.57,3.57,0,0,1-.72-.56s-.59-.3-.41-1.33a4.06,4.06,0,0,1,.41-1.4l1.27-.79a19.22,19.22,0,0,0,2.78-1.92,6.89,6.89,0,0,0,1.64-2.52c.36-1.11,1.61-3.46,1.58-5s-.42-4.28-.42-4.28l-.94-2.15c-.32-.7-.69-1.54-.69-1.54l-1.29-2.1-.7-.91A20.41,20.41,0,0,0,338.07,89c-2.44-.53-4.42-1-5.08-.76a7.77,7.77,0,0,1-3,.36c-.82-.16-6-1.48-6.17-1.57a3,3,0,0,1-1-1.19,2.87,2.87,0,0,1-.29-1.83,1.56,1.56,0,0,1,.84-1.2,10.25,10.25,0,0,1,1.15-.51,4.74,4.74,0,0,0,.53-1,1,1,0,0,0-.2-.42Z" transform="translate(-319.8 -79.56)"/><path class="cls-3" d="M334.74,119.58a15.91,15.91,0,0,1,2.11,2.67s.2.28,0,.94a2.34,2.34,0,0,1-1.61,1.62,15.24,15.24,0,0,0-2.15.83,10.25,10.25,0,0,0-2.87,2.34c-.37.48-1.07.62-1.3.39s-.32-.13.28-1.41a9.71,9.71,0,0,1,1.44-2.47,17.23,17.23,0,0,0,1.27-1.88,17.68,17.68,0,0,0,1-1.63c.47-.85.36-.74.77-1s.81-.5,1.06-.36" transform="translate(-319.8 -79.56)"/><path class="cls-3" d="M365.37,118.91a15.59,15.59,0,0,0-2.18,2.61s-.21.27,0,.93a2.35,2.35,0,0,0,1.56,1.67,13.68,13.68,0,0,1,2.12.9,10.26,10.26,0,0,1,2.81,2.42c.36.48,1.05.64,1.28.42s.33-.12-.23-1.42a10.09,10.09,0,0,0-1.37-2.51,17.11,17.11,0,0,1-1.22-1.92c-.53-.87-.54-.79-1-1.65s-.33-.75-.74-1.06-.79-.53-1.05-.39" transform="translate(-319.8 -79.56)"/><path class="cls-3" d="M320.1,144.71l1,9.41s10.43-.47,11.17-.68a6.38,6.38,0,0,1,3.1-.51,27.39,27.39,0,0,1,3.25.7s13.78.2,14.55.07c.53-.08,5.05-.45,8.44-.59a34,34,0,0,0,3.75-.49l14-.35a15.87,15.87,0,0,1-.05-4.84c.44-2,.6-3,.6-3s-.8-.8-1.06-.53-1.9,3.36-1.9,3.36l-1.66,1.47a6.23,6.23,0,0,1-1.74.9c-.69.14-.31.55-1.72.14s-1.77-.44-2.12-.76a1.72,1.72,0,0,1-.53-.73c-.22-.4-.58-1.23-.58-1.23a4.4,4.4,0,0,1,.74-1.93c.53-.52,1.28-.88,1.56-1.21s.79-1.09.79-1.09l-.16-.86-1.07-.27L368.61,143l-1.54,1-1.06.61-2.15-.34s-.74,4-.85,4.44a6.89,6.89,0,0,1-2.27,2c-.5.19-2,.64-2.75.82a29.31,29.31,0,0,1-3.12.73c-.74.08-2.68.19-2.68.19s-3.25.1-3.72,0-9.67-2.34-10-2.48a6.1,6.1,0,0,1-.92-.57l-1.12-3.6-4.29-1.59L331,143l-2-.31-.24,1s1.7,2,1.94,2.41.77.45.61,1.67a5.36,5.36,0,0,1-.91,2.51,1.83,1.83,0,0,1-1.32.36c-.47-.09-3.15-.68-3.15-.68s-2.7-2.19-2.87-2.43-1.26-2.6-1.26-2.6Z" transform="translate(-319.8 -79.56)"/><path class="cls-3" d="M320.75,132.9c.32.24,1.22,3.22,1.54,3.87s1.18,1.56,1.16,2a5.86,5.86,0,0,1-.31,1.46c-.14.31,0,.92-.95.59s-1.36-.17-1.55-.56a4.09,4.09,0,0,1,0-1.6c0-.37.08-2.14,0-2.64s-.1-1.19-.16-1.64-.23-.82-.22-1-.25-1,.42-.44" transform="translate(-319.8 -79.56)"/><path class="cls-3" d="M379.06,131.35a39.36,39.36,0,0,0-1.36,3.94c-.3.66-1.11,1.6-1.07,2.05a5.56,5.56,0,0,0,.38,1.45c.15.3,0,.91,1,.55s1.35-.23,1.52-.63a3.9,3.9,0,0,0-.1-1.6,26.31,26.31,0,0,1-.15-2.63c0-.5,0-1.2.08-1.65s.19-.84.17-1.06.21-1-.44-.42" transform="translate(-319.8 -79.56)"/><path class="cls-3" d="M364.84,129.21a42.44,42.44,0,0,0-4.1-1.62,16.92,16.92,0,0,0-4.55-1.14,6,6,0,0,0-2.22-.13,2.61,2.61,0,0,0-1.42.64,8.36,8.36,0,0,1-2.73.75c-.31-.13-2.89-1.1-3.18-1.34s-.79-.24-1.68-.12a4.39,4.39,0,0,0-1.49.47l-2.37.77-3,1a21.42,21.42,0,0,0-3.41,1.72c-.69.6-.31,1.49-.25,1.91s.71.61.88.71,2.25.95,2.25.95l5.73,2.1a29.65,29.65,0,0,1,3,1.49,6.07,6.07,0,0,1,1.36,1.31,6.2,6.2,0,0,0,2.7,1.17,1.64,1.64,0,0,0,1.77-1,7.94,7.94,0,0,1,1.27-1.37c.72-.59,9.91-4.74,10.24-4.92a10.3,10.3,0,0,0,2.15-1.77c.15-.33-.36-1.15-.89-1.57m-7.09,4.14c-.67.52-1.76,1.21-2.05,1.46a8.18,8.18,0,0,1-1.73.73c-.47.17-1.14.43-1.63.6a8.25,8.25,0,0,0-1.17.53l-1.06.14a12.63,12.63,0,0,1-2.53-.64c-.76-.36-1.64-.72-1.64-.72a5.06,5.06,0,0,1-1.18-.42,14.52,14.52,0,0,1-1.54-.81,16,16,0,0,1-1.55-1c-.44-.39-1.13-.82-1.17-1.26s-.2-1.14.51-1.56,1.42-.67,1.75-.85a7.45,7.45,0,0,1,1.79-.15s1.63-.25,2.26.74A11.32,11.32,0,0,0,348,131.8c.19.16,2.44,1.09,2.92.44a14.08,14.08,0,0,1,1.76-1.78c.6-.57.5-1,1.39-1.08a14.13,14.13,0,0,1,2.4-.14,4.2,4.2,0,0,1,1.73.43c.48.23,1,.49,1,.77a2.22,2.22,0,0,1,0,1.2,4.63,4.63,0,0,1-1.48,1.71" transform="translate(-319.8 -79.56)"/></g></g></g></svg>